<svg width="24" height="24" viewBox="0 0 24 24" fill="none" xmlns="http://www.w3.org/2000/svg">
  <path d="M7 17.9588L2 16.4588V7.96582L7 9.46582V17.9588Z" fill="#16a34a"/>
  <path d="M12 18.9588L7 17.9588V9.46582L12 10.4658V18.9588Z" fill="#15803d"/>
  <path d="M17 17.9588L12 18.9588V10.4658L17 9.46582V17.9588Z" fill="#16a34a"/>
  <path d="M22 16.4588L17 17.9588V9.46582L22 7.96582V16.4588Z" fill="#15803d"/>
  <path d="M15.2284 2.1334C13.1474 1.4454 10.853 1.4454 8.77198 2.1334C8.31798 2.2854 8.07198 2.7754 8.22398 3.2294C8.37598 3.6834 8.86598 3.9294 9.31998 3.7774C11.0198 3.2174 12.981 3.2174 14.6804 3.7774C14.7694 3.8094 14.8604 3.8254 14.9494 3.8254C15.3034 3.8254 15.6344 3.6054 15.7544 3.2574C15.9064 2.8034 15.6604 2.3134 15.2064 2.1614L15.2284 2.1334Z" fill="#22c55e"/>
  <path d="M12.0003 22.8C11.5583 22.8 11.2003 22.442 11.2003 22V10.446C11.2003 10.004 11.5583 9.64596 12.0003 9.64596C12.4423 9.64596 12.8003 10.004 12.8003 10.446V22C12.8003 22.442 12.4423 22.8 12.0003 22.8Z" fill="#052e16"/>
  <path d="M7.19998 21.626C6.75798 21.626 6.39998 21.268 6.39998 20.826V9.42596C6.39998 8.98396 6.75798 8.62596 7.19998 8.62596C7.64198 8.62596 7.99998 8.98396 7.99998 9.42596V20.826C7.99998 21.268 7.64198 21.626 7.19998 21.626Z" fill="#052e16"/>
  <path d="M16.8 21.626C16.358 21.626 16 21.268 16 20.826V9.42596C16 8.98396 16.358 8.62596 16.8 8.62596C17.242 8.62596 17.6 8.98396 17.6 9.42596V20.826C17.6 21.268 17.242 21.626 16.8 21.626Z" fill="#052e16"/>
</svg>